<?xml version="1.0" encoding="UTF-8"?>
<!-- Created with Inkscape (http://www.inkscape.org/) -->
<svg width="473.6mm" height="129.63mm" version="1.1" viewBox="0 0 473.6 129.63" xml:space="preserve" xmlns="http://www.w3.org/2000/svg"><g transform="translate(119.22 -73.698)" fill="#de0a00"><g transform="translate(108.35 -23.096)" fill="#de0a00"><g fill="#de0a00"><g clip-rule="evenodd" fill-rule="evenodd" stroke-width=".77563"><path class="st0" d="m152.36 127.9 2.1885-2.63s-2e-3 27.85-2e-3 47.421c0.54294 16.909-16.831 17.995-21.097 13.496-4.3435-4.6538 5.9723-20.089 18.77-15.047z"/><path class="st0" d="m193.15 133.16 2.3098 7.2947s0.0171 32.857 0.0171 52.429c0.54294 16.909-16.831 17.995-21.097 13.496-4.3435-4.6538 5.9723-20.089 18.77-15.047z"/><path class="st0" d="m234.01 150.88 2.3364 1.7528s-0.01 38.399-0.01 57.971c0.54294 16.909-16.831 17.995-21.097 13.496-4.3435-4.6538 5.9724-20.089 18.77-15.047z"/></g><g stroke-linecap="square" stroke-linejoin="round"><path d="m154.42 127.91c1.5817-34.5 42.786-40.783 41.038 13.681l-2.3111-4.5232c-0.0109-44.413-36.422-36.633-38.614-9.1392z" style="paint-order:fill markers stroke"/><ellipse cx="243.82" cy="215.05" rx="2.1983" ry="1.9984" stroke-width="1.0682" style="paint-order:fill markers stroke"/><path d="m195.33 141.81c1.0312-32.991 41.301-42.873 41.02 10.825l-2.3303-0.0255c0.0108-45.786-36.377-41.004-38.56-10.798z" style="paint-order:fill markers stroke"/><path d="m133.36 127.59c2.3199-22.422 22.27-56.364 21.189 0.0595l-2.193 0.52927c0.0372-32.333-4.6955-28.822-10.383-21.366-4.679 6.6475-5.7434 13.851-8.6136 20.777z" style="paint-order:fill markers stroke"/></g><path class="st0" d="m-207.66 127.96 2.1885-2.63s-2e-3 27.85-2e-3 47.421c0.54294 16.909-16.831 17.995-21.097 13.496-4.3435-4.6538 5.9723-20.089 18.77-15.047z" clip-rule="evenodd" fill-rule="evenodd" stroke-width=".77563"/><path d="m-226.65 127.81c2.3199-22.422 22.27-56.364 21.189 0.0595l-2.193 0.52927c0.0372-32.333-4.6955-28.822-10.383-21.366-4.679 6.6475-5.7434 13.851-8.6136 20.777z" stroke-linecap="square" stroke-linejoin="round" style="paint-order:fill markers stroke"/><path class="st0" d="m-166.86 133.22 2.3098 7.2947s0.0171 32.857 0.0171 52.429c0.54294 16.909-16.831 17.995-21.097 13.496-4.3435-4.6538 5.9723-20.089 18.77-15.047z" clip-rule="evenodd" fill-rule="evenodd" stroke-width=".77563"/><path class="st0" d="m-126 150.93 2.3364 1.7528s-0.01 38.399-0.01 57.971c0.54294 16.909-16.831 17.995-21.097 13.496-4.3435-4.6538 5.9724-20.089 18.77-15.047z" clip-rule="evenodd" fill-rule="evenodd" stroke-width=".77563"/><g stroke-linecap="square" stroke-linejoin="round"><path d="m-205.59 127.97c1.5817-34.5 42.786-40.783 41.038 13.681l-2.3111-4.5232c-0.0109-44.413-36.422-36.633-38.614-9.1392z" style="paint-order:fill markers stroke"/><path d="m-164.69 141.87c1.0312-32.991 41.301-42.873 41.02 10.825l-2.3303-0.0255c0.0108-45.786-36.377-41.004-38.56-10.798z" style="paint-order:fill markers stroke"/><path d="m-223.5 114.32c10.476-13.486 19.12-43.04 18.039 13.383l-2.193 0.52927c0.0372-32.333-0.44055-33.396-9.9179-20.87z" display="none" style="paint-order:fill markers stroke"/><g transform="translate(-6.7336 -7.0221)" stroke-width="4.6554" style="paint-order:fill markers stroke" aria-label="e"><path d="m-85.628 164.22c-2.3588 1.0922-5.2612 1.417-7.9453 1.4429 1.8919-5.6758 3.7582-9.9158 8.6697-17.821 5.0762-8.1703 15.086-20.358 20.834-17.144 5.4163 5.4805-13.528 29.804-21.558 33.522zm1.7842 42.257c21.422 2.7344 48.453-42.797 45.58-44.78-1.7001-1.1735-7.3809 16.299-22.881 30.536-6.3132 5.7989-8.4737 7.7692-16.336 9.5908-9.3008 2.1548-16.054-7.7705-17.396-14.249-0.96481-4.6586-1.5321-9.9543 0.28062-18.667 2.5382 0.18471 7.4306-0.72102 11.415-3.195 10.861-6.7446 17.313-15.517 21.712-26.578 1.7066-4.2915 4.2643-13.436-0.03825-15.114-7.7385-3.0187-27.124 20.706-32.8 35.841-2.8379 7.5678-5.2497 11.243-5.3758 22.419-0.29756 10.349 6.5672 23.012 15.84 24.196z" fill="#de0a00"/></g><path d="m-125.32 144.4c0.47889 0.24812 22.453 17.039 22.603 13.513l-1.4789 4.0568c-9.4022-2.6928-23.46-18.78-21.124-17.57z" style="paint-order:fill markers stroke"/><g transform="translate(48.63 -6.8055)" stroke-width="4.6554" style="paint-order:fill markers stroke" aria-label="e"><path d="m-85.628 164.22c-2.3588 1.0922-5.2612 1.417-7.9453 1.4429 1.8919-5.6758 3.7582-9.9158 8.6697-17.821 5.0762-8.1703 15.086-20.358 20.834-17.144 5.4163 5.4805-13.528 29.804-21.558 33.522zm1.7842 42.257c21.422 2.7344 48.453-42.797 45.58-44.78-1.7001-1.1735-7.3809 16.299-22.881 30.536-6.3132 5.7989-8.4737 7.7692-16.336 9.5908-9.3008 2.1548-16.054-7.7705-17.396-14.249-0.96481-4.6586-1.5321-9.9543 0.28062-18.667 2.5382 0.18471 7.4306-0.72102 11.415-3.195 10.861-6.7446 17.313-15.517 21.712-26.578 1.7066-4.2915 4.2643-13.436-0.03825-15.114-7.7385-3.0187-27.124 20.706-32.8 35.841-2.8379 7.5678-5.2497 11.243-5.3758 22.419-0.29756 10.349 6.5672 23.012 15.84 24.196z" fill="#de0a00"/></g><g transform="translate(104.22 -6.9481)" stroke-width="4.6554" style="paint-order:fill markers stroke" aria-label="e"><path d="m-85.628 164.22c-2.3588 1.0922-5.2612 1.417-7.9453 1.4429 1.8919-5.6758 3.7582-9.9158 8.6697-17.821 5.0762-8.1703 15.086-20.358 20.834-17.144 5.4163 5.4805-13.528 29.804-21.558 33.522zm1.7842 42.257c21.422 2.7344 48.453-42.797 45.58-44.78-1.7001-1.1735-7.3809 16.299-22.881 30.536-6.3132 5.7989-8.4737 7.7692-16.336 9.5908-9.3008 2.1548-16.054-7.7705-17.396-14.249-0.96481-4.6586-1.5321-9.9543 0.28062-18.667 2.5382 0.18471 7.4306-0.72102 11.415-3.195 10.861-6.7446 17.313-15.517 21.712-26.578 1.7066-4.2915 4.2643-13.436-0.03825-15.114-7.7385-3.0187-27.124 20.706-32.8 35.841-2.8379 7.5678-5.2497 11.243-5.3758 22.419-0.29756 10.349 6.5672 23.012 15.84 24.196z" fill="#de0a00"/></g><g transform="translate(-9.7152 4.9609)" style="paint-order:fill markers stroke" aria-label="a"><path d="m81.597 187.86c-1.9348 0.84659-9.7254 5.8925-9.4458-15.08 0.27684-20.768 29.182-62.581 39.857-55.483 5.9207 3.9365-1.2377 25.718-3.3804 31.354-2.3698 5.9246-11.812 32.551-27.031 39.21zm24.501 7.1513c18.955 3.1491 32.426-48.863 32.557-50.621 0.26634-3.5778-17.972 57.304-33.233 46.393-9.7566-6.9754 9.5085-52.408 16.783-70.565 1.9255-4.3331 7.5049-8.2609 0.17051-4.3903-1.9644 1.1505-2.536 1.7804-5.1389 4.7557-1.6631-13.248-10.846-8.6604-18.146-2.5014-16.627 14.028-30.405 38.053-30.809 60.493-0.17745 9.8509 3.5389 19.817 13.385 14.391 7.7881-4.292 14.242-9.3456 19.693-18.825-0.23699 2.8438-1.5333 7.384-1.5333 9.7538-0.23346 4.0907 0.40013 10.141 6.272 11.116z" fill="#de0a00" stroke-width="4.665"/></g><path d="m131.45 133.91c2.7094-14.421 4.548-14.874 3.5669-10.949-3.5416 14.169-3.4763 22.214-10.824 41.295 5.8879-21.348 6.0126-23.723 7.2571-30.346z" style="paint-order:fill markers stroke"/></g></g></g></g></svg>
