<?xml version="1.0" encoding="UTF-8"?>
<!-- Created with Inkscape (http://www.inkscape.org/) -->
<svg width="168.8mm" height="168.8mm" version="1.1" viewBox="0 0 168.8 168.8" xml:space="preserve" xmlns="http://www.w3.org/2000/svg"><g transform="translate(-17.066 -66.807)" fill="#de0a00"><path d="m101.47 66.807a84.402 84.402 0 0 0-84.402 84.402 84.402 84.402 0 0 0 84.402 84.402 84.402 84.402 0 0 0 84.402-84.402 84.402 84.402 0 0 0-84.402-84.402zm-0.15865 2.6789a81.52 81.52 0 0 1 81.52 81.52 81.52 81.52 0 0 1-81.52 81.52 81.52 81.52 0 0 1-81.52-81.52 81.52 81.52 0 0 1 81.52-81.52z" stroke-linecap="square" stroke-linejoin="round" stroke-width=".90496" style="paint-order:fill markers stroke"/><g stroke-width=".77563"><path class="st0" d="m66.018 113.97 2.1885-2.63s-0.0016 27.85-0.0016 47.421c0.54294 16.909-16.831 17.995-21.097 13.496-4.3435-4.6538 5.9723-20.089 18.77-15.047z"/><path class="st0" d="m106.81 119.23 2.3098 7.2947s0.0171 32.857 0.0171 52.429c0.54294 16.909-16.831 17.995-21.097 13.496-4.3435-4.6538 5.9723-20.089 18.77-15.047z" clip-rule="evenodd" fill-rule="evenodd"/><path class="st0" d="m147.67 136.95 2.3364 1.7528s-0.01 38.399-0.01 57.971c0.54294 16.909-16.831 17.995-21.097 13.496-4.3435-4.6538 5.9724-20.089 18.77-15.047z" clip-rule="evenodd" fill-rule="evenodd"/></g><path d="m68.08 113.98c1.5817-34.5 42.786-40.783 41.038 13.681l-2.3111-4.5232c-0.01086-44.413-36.422-36.633-38.614-9.1392z" stroke-linecap="square" stroke-linejoin="round" style="paint-order:fill markers stroke"/><ellipse cx="157.48" cy="201.12" rx="2.1983" ry="1.9984" stroke-linecap="square" stroke-linejoin="round" stroke-width="1.0682" style="paint-order:fill markers stroke"/><path d="m106.99 122.87c0.10738-30.382 42.749-31.76 43.196 7.7225l-2.3303-0.0255c0.59098-36.081-38.86-34.715-38.554-7.5962z" display="none" stroke-linecap="square" stroke-linejoin="round" style="paint-order:fill markers stroke"/><path d="m108.99 127.88c1.0312-32.991 41.301-42.873 41.02 10.825l-2.3303-0.0255c0.0108-45.786-36.377-41.004-38.56-10.798z" stroke-linecap="square" stroke-linejoin="round" style="paint-order:fill markers stroke"/></g><g transform="translate(-17.066 -66.807)" fill="#de0a00" stroke-linecap="square" stroke-linejoin="round"><path d="m51.759 99.805c10.476-13.486 19.12-43.04 18.039 13.383l-2.1931 0.52927c0.037231-32.333-0.44055-33.396-9.9179-20.87z" display="none" style="paint-order:fill markers stroke"/><path d="m47.018 114.84c2.3199-22.422 22.27-56.364 21.189 0.0595l-2.193 0.52927c0.0372-32.333-4.6955-28.822-10.383-21.366-4.679 6.6475-5.7434 13.851-8.6136 20.777z" style="paint-order:fill markers stroke"/></g><style type="text/css">
	.st0{fill-rule:evenodd;clip-rule:evenodd;}
</style></svg>
